<svg width="32" height="32" viewBox="0 0 32 32" xmlns="http://www.w3.org/2000/svg"><path fill-rule="evenodd" clip-rule="evenodd" d="M7 4h18a5.01 5.01 0 0 1 5 5v11a5.006 5.006 0 0 1-5 5H11.675c-.337.214-.653.46-.944.735-.274.24-.54.47-.773.636A8.057 8.057 0 0 1 5.153 28a5.082 5.082 0 0 1-2.124-.401 1.557 1.557 0 0 1-1.025-1.363 1.542 1.542 0 0 1 .933-1.403 3.248 3.248 0 0 0 1-.892A5.02 5.02 0 0 1 2 20V9a5.01 5.01 0 0 1 5-5Zm12.172 12.838c.19.087.396.13.604.123.972 0 1.496-.54 1.57-1.62h1.71a3.05 3.05 0 0 1-1.12 2.18 3.57 3.57 0 0 1-2.19.621 3.1 3.1 0 0 1-2.51-1.07 4.061 4.061 0 0 1-.84-2.7 3.777 3.777 0 0 1 1.05-2.9 3.35 3.35 0 0 1 2.38-.83c.808-.035 1.6.224 2.23.73.521.455.859 1.084.95 1.77h-1.68a1.443 1.443 0 0 0-1.5-1.33 1.401 1.401 0 0 0-1.27.69 3.52 3.52 0 0 0-.41 1.87c-.06.737.13 1.473.54 2.09.131.16.297.29.486.376Zm-7.394 0c.189.087.395.13.603.123.973 0 1.496-.54 1.57-1.62h1.71a3.05 3.05 0 0 1-1.12 2.18 3.573 3.573 0 0 1-2.19.621 3.102 3.102 0 0 1-2.51-1.07 4.067 4.067 0 0 1-.84-2.7 3.776 3.776 0 0 1 1.05-2.9 3.349 3.349 0 0 1 2.38-.83c.807-.036 1.6.224 2.23.73.521.454.859 1.084.95 1.77h-1.68a1.442 1.442 0 0 0-1.5-1.33 1.404 1.404 0 0 0-1.27.69 3.522 3.522 0 0 0-.41 1.87c-.061.737.13 1.474.54 2.09.131.16.298.29.487.377Z"/></svg>